<svg xmlns="http://www.w3.org/2000/svg" width="14.875" height="14.873" viewBox="0 0 14.875 14.873">
  <path id="basket" d="M12.5,11.54a1.916,1.916,0,1,1-1.916,1.916A1.916,1.916,0,0,1,12.5,11.54Zm0,2.875a.958.958,0,1,0-.958-.958A.958.958,0,0,0,12.5,14.415ZM5.79,11.54a1.916,1.916,0,1,1-1.916,1.916A1.916,1.916,0,0,1,5.79,11.54Zm0,2.875a.958.958,0,1,0-.958-.958A.958.958,0,0,0,5.79,14.415ZM1.478,1H2.915a.479.479,0,0,1,.479.364l.374,1.552H14.893a.473.473,0,0,1,.474.546l-.958,6.707a.479.479,0,0,1-.474.412H4.353a.479.479,0,0,1-.479-.412L2.915,3.486,2.542,1.958H1.478a.479.479,0,0,1,0-.958ZM4.769,9.624h8.748l.824-5.749H3.945Z" transform="translate(-0.749 -0.749)" stroke="#000" stroke-width="0.5"/>
</svg>
