<svg xmlns="http://www.w3.org/2000/svg" width="13.111" height="13.122" viewBox="0 0 13.111 13.122">
  <g id="call" transform="translate(-8.098 -8.128)">
    <path id="Path_886" data-name="Path 886" d="M18.7,24.629a14.986,14.986,0,0,0,4.365,3.133,5.271,5.271,0,0,0,2.051.506,1.93,1.93,0,0,0,1.417-.516l1.323-1.323a1.165,1.165,0,0,0-.08-1.639l-1.95-1.95a1.286,1.286,0,0,0-.789-.378,1.062,1.062,0,0,0-.85.3l-.591.6c-.185.083-1.141-.2-2.294-1.352s-1.435-2.108-1.365-2.278l.607-.607a1.06,1.06,0,0,0,.3-.85,1.288,1.288,0,0,0-.378-.789l-1.95-1.95a1.286,1.286,0,0,0-.789-.378,1.061,1.061,0,0,0-.85.3l-1.323,1.323c-.683.683-.674,1.91.024,3.456a15.688,15.688,0,0,0,3.125,4.4Zm-2.4-7.114L17.607,16.2l.013,0a.228.228,0,0,1,.149.074l1.95,1.95a.281.281,0,0,1,.08.15l-.607.608c-.825.825.129,2.531,1.365,3.767s2.942,2.191,3.767,1.365l.6-.6a.2.2,0,0,1,.161.072l1.95,1.95a.285.285,0,0,1,.081.15l-1.323,1.323c-.341.341-1.223.26-2.3-.211a13.937,13.937,0,0,1-4.042-2.912,14.591,14.591,0,0,1-2.91-4.093c-.483-1.069-.574-1.942-.239-2.277Z" transform="translate(-6.947 -7.016)"/>
  </g>
</svg>
