<svg xmlns="http://www.w3.org/2000/svg" width="30" height="22" viewBox="0 0 30 22">
  <g id="deal" transform="translate(0 -4)">
    <path id="Path_856" data-name="Path 856" d="M28,4H2A2,2,0,0,0,0,6V24a2,2,0,0,0,2,2H28a2,2,0,0,0,2-2V6A2,2,0,0,0,28,4ZM16.062,23H6V7H16.063a8,8,0,0,1,0,16Z" fill="#fff"/>
    <path id="Path_857" data-name="Path 857" d="M7.834,16.1h2.75V21H7.834Z" fill="#fff"/>
    <circle id="Ellipse_4" data-name="Ellipse 4" cx="1.709" cy="1.709" r="1.709" transform="translate(7.5 11.928)" fill="#fff"/>
    <path id="Path_858" data-name="Path 858" d="M16.725,14.436v.793h-1.96v-3.18h1.9v.792h-1.1v.368H16.6V14H15.557v.436Zm.342.793.96-3.182h1.127l.958,3.182h-.824l-.18-.615H18.07l-.18.615h-.824ZM18.3,13.822h.573l-.263-.9h-.048l-.262.9Zm2.207-1.774H21.3v2.389h1.173c-.322-4.335-3.731-5.272-6.831-5.272h-3.3v2.884h.49a1.406,1.406,0,0,1,1.444,1.577,1.405,1.405,0,0,1-1.445,1.6h-.489V21h3.3c5.038,0,6.792-2.34,6.854-5.771H20.51V12.048Zm-8.17.794v1.6h.49c.34,0,.653-.1.653-.81,0-.7-.349-.785-.653-.785Z" fill="#fff"/>
  </g>
</svg>
