<svg xmlns="http://www.w3.org/2000/svg" width="15.092" height="12.832" viewBox="0 0 15.092 12.832">
  <g id="message3" transform="translate(-16.4 -21.6)">
    <path id="Path_883" data-name="Path 883" d="M31.331,38.166H39.01a.533.533,0,0,0,0-1.066H31.331a.539.539,0,0,0-.531.533A.525.525,0,0,0,31.331,38.166Zm0,2.6H39.01a.533.533,0,0,0,0-1.066H31.331a.539.539,0,0,0-.531.533A.525.525,0,0,0,31.331,40.763Z" transform="translate(-11.213 -12.059)"/>
    <path id="Path_884" data-name="Path 884" d="M30.961,21.6H16.931a.539.539,0,0,0-.531.533v9.479a.539.539,0,0,0,.531.533h1.7V33.9a.579.579,0,0,0,.288.488.436.436,0,0,0,.243.044.657.657,0,0,0,.332-.111l2.855-2.176h8.608a.539.539,0,0,0,.531-.533V22.133A.539.539,0,0,0,30.961,21.6Zm-.531,9.479H22.176a.657.657,0,0,0-.332.111L19.7,32.833V31.612a.539.539,0,0,0-.531-.533h-1.7V22.666H30.43v8.414Z" transform="translate(0)"/>
  </g>
</svg>
