<svg xmlns="http://www.w3.org/2000/svg" width="30" height="22" viewBox="0 0 30 22">
  <g id="moestro" transform="translate(0 -4)">
    <path id="Path_859" data-name="Path 859" d="M13,13a5.98,5.98,0,0,0,2,4.46,5.973,5.973,0,0,0,0-8.92A5.98,5.98,0,0,0,13,13Zm8.45,8.675a.517.517,0,0,0-.175-.115.6.6,0,0,0-.435,0,.508.508,0,0,0-.288.293.637.637,0,0,0,0,.455.513.513,0,0,0,.289.292.6.6,0,0,0,.434,0,.524.524,0,0,0,.29-.293.637.637,0,0,0,0-.455.531.531,0,0,0-.116-.177Z" fill="#fff"/>
    <path id="Path_860" data-name="Path 860" d="M28,4H2A2,2,0,0,0,0,6V24a2,2,0,0,0,2,2H28a2,2,0,0,0,2-2V6A2,2,0,0,0,28,4ZM10.77,22.954h-.384v-.973c0-.3-.125-.461-.385-.461a.412.412,0,0,0-.428.464v.97H9.19v-.973c0-.3-.128-.461-.38-.461a.409.409,0,0,0-.429.464v.97H8V21.2h.38v.217a.579.579,0,0,1,.513-.26.642.642,0,0,1,.578.311.678.678,0,0,1,.615-.311.652.652,0,0,1,.688.695v1.1Zm2.144-.875v.875h-.38v-.212a.664.664,0,0,1-.553.256.92.92,0,0,1,0-1.837.665.665,0,0,1,.553.256v-.212h.38v.874Zm2.064.147h-1.3a.487.487,0,0,0,.524.428.833.833,0,0,0,.509-.183l.186.282A1.064,1.064,0,0,1,14.18,23a.919.919,0,0,1-.026-1.837.839.839,0,0,1,.831.918c0,.052,0,.1-.007.147ZM16,23a1.26,1.26,0,0,1-.757-.227l.18-.3a.932.932,0,0,0,.581.183c.26,0,.4-.077.4-.213,0-.1-.1-.153-.308-.183l-.18-.025c-.391-.055-.6-.23-.6-.516,0-.348.285-.56.728-.56a1.3,1.3,0,0,1,.713.183l-.164.307a1.128,1.128,0,0,0-.545-.15c-.21,0-.333.077-.333.2s.131.15.3.172l.18.026c.38.055.61.216.61.523,0,.333-.292.57-.8.57Zm2.02,0c-.45,0-.608-.242-.608-.648v-.8h-.355V21.2h.355v-.53h.384v.53h.622v.347h-.622v.79c0,.176.063.294.253.294a.7.7,0,0,0,.337-.1l.11.327a.894.894,0,0,1-.476.135Zm1.87-1.43a.62.62,0,0,0-.239-.045c-.248,0-.373.161-.373.45v.981H18.9V21.2h.376v.213a.516.516,0,0,1,.462-.256.835.835,0,0,1,.27.047l-.117.36Zm2.04.877a.886.886,0,0,1-.5.485,1.042,1.042,0,0,1-.751,0,.922.922,0,0,1,0-1.7.963.963,0,0,1,.375-.071.99.99,0,0,1,.376.07.91.91,0,0,1,.5.485.976.976,0,0,1,0,.731ZM19,19a5.927,5.927,0,0,1-4-1.534A5.927,5.927,0,0,1,11,19,6,6,0,1,1,11,7a5.927,5.927,0,0,1,4,1.534A5.927,5.927,0,0,1,19,7a6,6,0,0,1,0,12Z" fill="#fff"/>
    <path id="Path_861" data-name="Path 861" d="M12.029,21.52a.561.561,0,1,0,.527.56.524.524,0,0,0-.527-.56Zm2.118-.019a.452.452,0,0,0-.465.425h.908A.435.435,0,0,0,14.147,21.5Z" fill="#fff"/>
  </g>
</svg>
