<svg id="order3" xmlns="http://www.w3.org/2000/svg" width="67.701" height="67.701" viewBox="0 0 67.701 67.701">
  <g id="Group_140" data-name="Group 140" transform="translate(8.463)">
    <path id="Path_734" data-name="Path 734" d="M66.181,59.239H9.058A1.057,1.057,0,0,1,8,58.181V1.058A1.057,1.057,0,0,1,9.058,0H66.181a1.057,1.057,0,0,1,1.058,1.058V58.181A1.057,1.057,0,0,1,66.181,59.239ZM10.116,57.123H65.123V2.116H10.116Z" transform="translate(-8)" fill="#8a734d"/>
  </g>
  <g id="Group_141" data-name="Group 141" transform="translate(4.231 4.231)">
    <path id="Path_735" data-name="Path 735" d="M62.181,63.239H5.058A1.057,1.057,0,0,1,4,62.181V5.058a1.058,1.058,0,0,1,2.116,0V61.123H62.181a1.058,1.058,0,0,1,0,2.116Z" transform="translate(-4 -4)" fill="#8a734d"/>
  </g>
  <g id="Group_142" data-name="Group 142" transform="translate(0 8.463)">
    <path id="Path_736" data-name="Path 736" d="M58.181,67.239H1.058A1.057,1.057,0,0,1,0,66.181V9.058a1.058,1.058,0,0,1,2.116,0V65.123H58.181a1.058,1.058,0,1,1,0,2.116Z" transform="translate(0 -8)" fill="#8a734d"/>
  </g>
  <g id="Group_143" data-name="Group 143" transform="translate(61.354 57.123)">
    <path id="Path_737" data-name="Path 737" d="M59.058,60.347A1.057,1.057,0,0,1,58,59.289V55.058a1.058,1.058,0,0,1,2.116,0v4.231A1.057,1.057,0,0,1,59.058,60.347Z" transform="translate(-58 -54)" fill="#8a734d"/>
  </g>
  <g id="Group_144" data-name="Group 144" transform="translate(57.123 61.354)">
    <path id="Path_738" data-name="Path 738" d="M55.058,64.347A1.057,1.057,0,0,1,54,63.289V59.058a1.058,1.058,0,0,1,2.116,0v4.231A1.057,1.057,0,0,1,55.058,64.347Z" transform="translate(-54 -58)" fill="#8a734d"/>
  </g>
  <g id="Group_145" data-name="Group 145" transform="translate(4.231 4.231)">
    <path id="Path_739" data-name="Path 739" d="M9.289,6.116H5.058A1.058,1.058,0,0,1,5.058,4H9.289a1.058,1.058,0,0,1,0,2.116Z" transform="translate(-4 -4)" fill="#8a734d"/>
  </g>
  <g id="Group_146" data-name="Group 146" transform="translate(0 8.463)">
    <path id="Path_740" data-name="Path 740" d="M5.289,10.116H1.058A1.058,1.058,0,1,1,1.058,8H5.289a1.058,1.058,0,1,1,0,2.116Z" transform="translate(0 -8)" fill="#8a734d"/>
  </g>
  <g id="Group_219" data-name="Group 219" transform="translate(13.777 5.29)">
    <g id="Group_147" data-name="Group 147" transform="translate(0 46.545)">
      <path id="Path_741" data-name="Path 741" d="M14.087,51.117A1.058,1.058,0,0,1,14.075,49h.012a1.058,1.058,0,0,1,0,2.116Z" transform="translate(-13.024 -49.001)" fill="#8a734d"/>
    </g>
    <g id="Group_148" data-name="Group 148" transform="translate(0 38.082)">
      <path id="Path_742" data-name="Path 742" d="M14.087,43.117A1.058,1.058,0,0,1,14.075,41h.012a1.058,1.058,0,0,1,0,2.116Z" transform="translate(-13.024 -41.001)" fill="#8a734d"/>
    </g>
    <g id="Group_149" data-name="Group 149" transform="translate(4.231 42.313)">
      <path id="Path_743" data-name="Path 743" d="M18.087,47.117A1.058,1.058,0,0,1,18.075,45h.012a1.058,1.058,0,0,1,0,2.116Z" transform="translate(-17.024 -45.001)" fill="#8a734d"/>
    </g>
    <g id="Group_150" data-name="Group 150" transform="translate(8.463 46.545)">
      <path id="Path_744" data-name="Path 744" d="M22.087,51.117A1.058,1.058,0,0,1,22.075,49h.012a1.058,1.058,0,0,1,0,2.116Z" transform="translate(-21.024 -49.001)" fill="#8a734d"/>
    </g>
    <g id="Group_151" data-name="Group 151" transform="translate(0 29.619)">
      <path id="Path_745" data-name="Path 745" d="M14.087,35.117A1.058,1.058,0,0,1,14.075,33h.012a1.058,1.058,0,0,1,0,2.116Z" transform="translate(-13.024 -33.001)" fill="#8a734d"/>
    </g>
    <g id="Group_152" data-name="Group 152" transform="translate(4.231 33.851)">
      <path id="Path_746" data-name="Path 746" d="M18.087,39.117A1.058,1.058,0,0,1,18.075,37h.012a1.058,1.058,0,0,1,0,2.116Z" transform="translate(-17.024 -37.001)" fill="#8a734d"/>
    </g>
    <g id="Group_153" data-name="Group 153" transform="translate(8.463 38.082)">
      <path id="Path_747" data-name="Path 747" d="M22.087,43.117A1.058,1.058,0,0,1,22.075,41h.012a1.058,1.058,0,0,1,0,2.116Z" transform="translate(-21.024 -41.001)" fill="#8a734d"/>
    </g>
    <g id="Group_154" data-name="Group 154" transform="translate(12.694 42.313)">
      <path id="Path_748" data-name="Path 748" d="M26.087,47.117A1.058,1.058,0,0,1,26.075,45h.012a1.058,1.058,0,1,1,0,2.116Z" transform="translate(-25.024 -45.001)" fill="#8a734d"/>
    </g>
    <g id="Group_155" data-name="Group 155" transform="translate(16.925 46.545)">
      <path id="Path_749" data-name="Path 749" d="M30.087,51.117A1.058,1.058,0,0,1,30.075,49h.012a1.058,1.058,0,0,1,0,2.116Z" transform="translate(-29.024 -49.001)" fill="#8a734d"/>
    </g>
    <g id="Group_156" data-name="Group 156" transform="translate(0 21.157)">
      <path id="Path_750" data-name="Path 750" d="M14.087,27.117A1.058,1.058,0,0,1,14.075,25h.012a1.058,1.058,0,1,1,0,2.116Z" transform="translate(-13.024 -25.001)" fill="#8a734d"/>
    </g>
    <g id="Group_157" data-name="Group 157" transform="translate(4.231 25.388)">
      <path id="Path_751" data-name="Path 751" d="M18.087,31.117A1.058,1.058,0,0,1,18.075,29h.012a1.058,1.058,0,1,1,0,2.116Z" transform="translate(-17.024 -29.001)" fill="#8a734d"/>
    </g>
    <g id="Group_158" data-name="Group 158" transform="translate(8.463 29.619)">
      <path id="Path_752" data-name="Path 752" d="M22.087,35.117A1.058,1.058,0,0,1,22.075,33h.012a1.058,1.058,0,0,1,0,2.116Z" transform="translate(-21.024 -33.001)" fill="#8a734d"/>
    </g>
    <g id="Group_159" data-name="Group 159" transform="translate(12.694 33.851)">
      <path id="Path_753" data-name="Path 753" d="M26.087,39.117A1.058,1.058,0,0,1,26.075,37h.012a1.058,1.058,0,1,1,0,2.116Z" transform="translate(-25.024 -37.001)" fill="#8a734d"/>
    </g>
    <g id="Group_160" data-name="Group 160" transform="translate(16.925 38.082)">
      <path id="Path_754" data-name="Path 754" d="M30.087,43.117A1.058,1.058,0,0,1,30.075,41h.012a1.058,1.058,0,0,1,0,2.116Z" transform="translate(-29.024 -41.001)" fill="#8a734d"/>
    </g>
    <g id="Group_161" data-name="Group 161" transform="translate(21.157 42.313)">
      <path id="Path_755" data-name="Path 755" d="M34.087,47.117A1.058,1.058,0,0,1,34.075,45h.012a1.058,1.058,0,0,1,0,2.116Z" transform="translate(-33.024 -45.001)" fill="#8a734d"/>
    </g>
    <g id="Group_162" data-name="Group 162" transform="translate(25.388 46.545)">
      <path id="Path_756" data-name="Path 756" d="M38.087,51.117A1.058,1.058,0,0,1,38.075,49h.012a1.058,1.058,0,0,1,0,2.116Z" transform="translate(-37.024 -49.001)" fill="#8a734d"/>
    </g>
    <g id="Group_163" data-name="Group 163" transform="translate(0 12.694)">
      <path id="Path_757" data-name="Path 757" d="M14.087,19.117A1.058,1.058,0,0,1,14.075,17h.012a1.058,1.058,0,1,1,0,2.116Z" transform="translate(-13.024 -17.001)" fill="#8a734d"/>
    </g>
    <g id="Group_164" data-name="Group 164" transform="translate(4.231 16.925)">
      <path id="Path_758" data-name="Path 758" d="M18.087,23.117A1.058,1.058,0,0,1,18.075,21h.012a1.058,1.058,0,1,1,0,2.116Z" transform="translate(-17.024 -21.001)" fill="#8a734d"/>
    </g>
    <g id="Group_165" data-name="Group 165" transform="translate(8.463 21.157)">
      <path id="Path_759" data-name="Path 759" d="M22.087,27.117A1.058,1.058,0,0,1,22.075,25h.012a1.058,1.058,0,0,1,0,2.116Z" transform="translate(-21.024 -25.001)" fill="#8a734d"/>
    </g>
    <g id="Group_166" data-name="Group 166" transform="translate(12.694 25.388)">
      <path id="Path_760" data-name="Path 760" d="M26.087,31.117A1.058,1.058,0,0,1,26.075,29h.012a1.058,1.058,0,0,1,0,2.116Z" transform="translate(-25.024 -29.001)" fill="#8a734d"/>
    </g>
    <g id="Group_167" data-name="Group 167" transform="translate(16.925 29.619)">
      <path id="Path_761" data-name="Path 761" d="M30.087,35.117A1.058,1.058,0,0,1,30.075,33h.012a1.058,1.058,0,0,1,0,2.116Z" transform="translate(-29.024 -33.001)" fill="#8a734d"/>
    </g>
    <g id="Group_168" data-name="Group 168" transform="translate(21.157 33.851)">
      <path id="Path_762" data-name="Path 762" d="M34.087,39.117A1.058,1.058,0,0,1,34.075,37h.012a1.058,1.058,0,1,1,0,2.116Z" transform="translate(-33.024 -37.001)" fill="#8a734d"/>
    </g>
    <g id="Group_169" data-name="Group 169" transform="translate(25.388 38.082)">
      <path id="Path_763" data-name="Path 763" d="M38.087,43.117A1.058,1.058,0,0,1,38.075,41h.012a1.058,1.058,0,0,1,0,2.116Z" transform="translate(-37.024 -41.001)" fill="#8a734d"/>
    </g>
    <g id="Group_170" data-name="Group 170" transform="translate(29.619 42.313)">
      <path id="Path_764" data-name="Path 764" d="M42.087,47.117A1.058,1.058,0,0,1,42.075,45h.012a1.058,1.058,0,0,1,0,2.116Z" transform="translate(-41.024 -45.001)" fill="#8a734d"/>
    </g>
    <g id="Group_171" data-name="Group 171" transform="translate(33.851 46.545)">
      <path id="Path_765" data-name="Path 765" d="M46.087,51.117A1.058,1.058,0,0,1,46.075,49h.012a1.058,1.058,0,0,1,0,2.116Z" transform="translate(-45.024 -49.001)" fill="#8a734d"/>
    </g>
    <g id="Group_172" data-name="Group 172" transform="translate(0 4.231)">
      <path id="Path_766" data-name="Path 766" d="M14.087,11.117A1.058,1.058,0,0,1,14.075,9h.012a1.058,1.058,0,1,1,0,2.116Z" transform="translate(-13.024 -9.001)" fill="#8a734d"/>
    </g>
    <g id="Group_173" data-name="Group 173" transform="translate(4.231 8.463)">
      <path id="Path_767" data-name="Path 767" d="M18.087,15.117A1.058,1.058,0,0,1,18.075,13h.012a1.058,1.058,0,0,1,0,2.116Z" transform="translate(-17.024 -13.001)" fill="#8a734d"/>
    </g>
    <g id="Group_174" data-name="Group 174" transform="translate(8.463 12.694)">
      <path id="Path_768" data-name="Path 768" d="M22.087,19.117A1.058,1.058,0,0,1,22.075,17h.012a1.058,1.058,0,0,1,0,2.116Z" transform="translate(-21.024 -17.001)" fill="#8a734d"/>
    </g>
    <g id="Group_175" data-name="Group 175" transform="translate(12.694 16.925)">
      <path id="Path_769" data-name="Path 769" d="M26.087,23.117A1.058,1.058,0,0,1,26.075,21h.012a1.058,1.058,0,0,1,0,2.116Z" transform="translate(-25.024 -21.001)" fill="#8a734d"/>
    </g>
    <g id="Group_176" data-name="Group 176" transform="translate(16.925 21.157)">
      <path id="Path_770" data-name="Path 770" d="M30.087,27.117A1.058,1.058,0,0,1,30.075,25h.012a1.058,1.058,0,1,1,0,2.116Z" transform="translate(-29.024 -25.001)" fill="#8a734d"/>
    </g>
    <g id="Group_177" data-name="Group 177" transform="translate(21.157 25.388)">
      <path id="Path_771" data-name="Path 771" d="M34.087,31.117A1.058,1.058,0,0,1,34.075,29h.012a1.058,1.058,0,1,1,0,2.116Z" transform="translate(-33.024 -29.001)" fill="#8a734d"/>
    </g>
    <g id="Group_178" data-name="Group 178" transform="translate(25.388 29.619)">
      <path id="Path_772" data-name="Path 772" d="M38.087,35.117A1.058,1.058,0,0,1,38.075,33h.012a1.058,1.058,0,0,1,0,2.116Z" transform="translate(-37.024 -33.001)" fill="#8a734d"/>
    </g>
    <g id="Group_179" data-name="Group 179" transform="translate(29.619 33.851)">
      <path id="Path_773" data-name="Path 773" d="M42.087,39.117A1.058,1.058,0,0,1,42.075,37h.012a1.058,1.058,0,0,1,0,2.116Z" transform="translate(-41.024 -37.001)" fill="#8a734d"/>
    </g>
    <g id="Group_180" data-name="Group 180" transform="translate(33.851 38.082)">
      <path id="Path_774" data-name="Path 774" d="M46.087,43.117A1.058,1.058,0,0,1,46.075,41h.012a1.058,1.058,0,0,1,0,2.116Z" transform="translate(-45.024 -41.001)" fill="#8a734d"/>
    </g>
    <g id="Group_181" data-name="Group 181" transform="translate(38.082 42.313)">
      <path id="Path_775" data-name="Path 775" d="M50.087,47.117A1.058,1.058,0,0,1,50.075,45h.012a1.058,1.058,0,0,1,0,2.116Z" transform="translate(-49.024 -45.001)" fill="#8a734d"/>
    </g>
    <g id="Group_182" data-name="Group 182" transform="translate(42.313 46.545)">
      <path id="Path_776" data-name="Path 776" d="M54.087,51.117A1.058,1.058,0,0,1,54.075,49h.012a1.058,1.058,0,0,1,0,2.116Z" transform="translate(-53.024 -49.001)" fill="#8a734d"/>
    </g>
    <g id="Group_183" data-name="Group 183" transform="translate(4.231)">
      <path id="Path_777" data-name="Path 777" d="M18.087,7.117A1.058,1.058,0,0,1,18.075,5h.012a1.058,1.058,0,0,1,0,2.116Z" transform="translate(-17.024 -5.001)" fill="#8a734d"/>
    </g>
    <g id="Group_184" data-name="Group 184" transform="translate(8.463 4.231)">
      <path id="Path_778" data-name="Path 778" d="M22.087,11.117A1.058,1.058,0,0,1,22.075,9h.012a1.058,1.058,0,0,1,0,2.116Z" transform="translate(-21.024 -9.001)" fill="#8a734d"/>
    </g>
    <g id="Group_185" data-name="Group 185" transform="translate(12.694 8.463)">
      <path id="Path_779" data-name="Path 779" d="M26.087,15.117A1.058,1.058,0,0,1,26.075,13h.012a1.058,1.058,0,1,1,0,2.116Z" transform="translate(-25.024 -13.001)" fill="#8a734d"/>
    </g>
    <g id="Group_186" data-name="Group 186" transform="translate(16.925 12.694)">
      <path id="Path_780" data-name="Path 780" d="M30.087,19.117A1.058,1.058,0,0,1,30.075,17h.012a1.058,1.058,0,0,1,0,2.116Z" transform="translate(-29.024 -17.001)" fill="#8a734d"/>
    </g>
    <g id="Group_187" data-name="Group 187" transform="translate(21.157 16.925)">
      <path id="Path_781" data-name="Path 781" d="M34.087,23.117A1.058,1.058,0,0,1,34.075,21h.012a1.058,1.058,0,1,1,0,2.116Z" transform="translate(-33.024 -21.001)" fill="#8a734d"/>
    </g>
    <g id="Group_188" data-name="Group 188" transform="translate(25.388 21.157)">
      <path id="Path_782" data-name="Path 782" d="M38.087,27.117A1.058,1.058,0,0,1,38.075,25h.012a1.058,1.058,0,0,1,0,2.116Z" transform="translate(-37.024 -25.001)" fill="#8a734d"/>
    </g>
    <g id="Group_189" data-name="Group 189" transform="translate(29.619 25.388)">
      <path id="Path_783" data-name="Path 783" d="M42.087,31.117A1.058,1.058,0,0,1,42.075,29h.012a1.058,1.058,0,0,1,0,2.116Z" transform="translate(-41.024 -29.001)" fill="#8a734d"/>
    </g>
    <g id="Group_190" data-name="Group 190" transform="translate(33.851 29.619)">
      <path id="Path_784" data-name="Path 784" d="M46.087,35.117A1.058,1.058,0,0,1,46.075,33h.012a1.058,1.058,0,0,1,0,2.116Z" transform="translate(-45.024 -33.001)" fill="#8a734d"/>
    </g>
    <g id="Group_191" data-name="Group 191" transform="translate(38.082 33.851)">
      <path id="Path_785" data-name="Path 785" d="M50.087,39.117A1.058,1.058,0,0,1,50.075,37h.012a1.058,1.058,0,0,1,0,2.116Z" transform="translate(-49.024 -37.001)" fill="#8a734d"/>
    </g>
    <g id="Group_192" data-name="Group 192" transform="translate(42.313 38.082)">
      <path id="Path_786" data-name="Path 786" d="M54.087,43.117A1.058,1.058,0,0,1,54.075,41h.012a1.058,1.058,0,0,1,0,2.116Z" transform="translate(-53.024 -41.001)" fill="#8a734d"/>
    </g>
    <g id="Group_193" data-name="Group 193" transform="translate(46.545 42.313)">
      <path id="Path_787" data-name="Path 787" d="M58.087,47.117A1.058,1.058,0,0,1,58.075,45h.012a1.058,1.058,0,0,1,0,2.116Z" transform="translate(-57.024 -45.001)" fill="#8a734d"/>
    </g>
    <g id="Group_194" data-name="Group 194" transform="translate(12.694)">
      <path id="Path_788" data-name="Path 788" d="M26.087,7.117A1.058,1.058,0,0,1,26.075,5h.012a1.058,1.058,0,0,1,0,2.116Z" transform="translate(-25.024 -5.001)" fill="#8a734d"/>
    </g>
    <g id="Group_195" data-name="Group 195" transform="translate(16.925 4.231)">
      <path id="Path_789" data-name="Path 789" d="M30.087,11.117A1.058,1.058,0,0,1,30.075,9h.012a1.058,1.058,0,1,1,0,2.116Z" transform="translate(-29.024 -9.001)" fill="#8a734d"/>
    </g>
    <g id="Group_196" data-name="Group 196" transform="translate(21.157 8.463)">
      <path id="Path_790" data-name="Path 790" d="M34.087,15.117A1.058,1.058,0,0,1,34.075,13h.012a1.058,1.058,0,1,1,0,2.116Z" transform="translate(-33.024 -13.001)" fill="#8a734d"/>
    </g>
    <g id="Group_197" data-name="Group 197" transform="translate(25.388 12.694)">
      <path id="Path_791" data-name="Path 791" d="M38.087,19.117A1.058,1.058,0,0,1,38.075,17h.012a1.058,1.058,0,0,1,0,2.116Z" transform="translate(-37.024 -17.001)" fill="#8a734d"/>
    </g>
    <g id="Group_198" data-name="Group 198" transform="translate(29.619 16.925)">
      <path id="Path_792" data-name="Path 792" d="M42.087,23.117A1.058,1.058,0,0,1,42.075,21h.012a1.058,1.058,0,0,1,0,2.116Z" transform="translate(-41.024 -21.001)" fill="#8a734d"/>
    </g>
    <g id="Group_199" data-name="Group 199" transform="translate(33.851 21.157)">
      <path id="Path_793" data-name="Path 793" d="M46.087,27.117A1.058,1.058,0,0,1,46.075,25h.012a1.058,1.058,0,0,1,0,2.116Z" transform="translate(-45.024 -25.001)" fill="#8a734d"/>
    </g>
    <g id="Group_200" data-name="Group 200" transform="translate(38.082 25.388)">
      <path id="Path_794" data-name="Path 794" d="M50.087,31.117A1.058,1.058,0,0,1,50.075,29h.012a1.058,1.058,0,0,1,0,2.116Z" transform="translate(-49.024 -29.001)" fill="#8a734d"/>
    </g>
    <g id="Group_201" data-name="Group 201" transform="translate(42.313 29.619)">
      <path id="Path_795" data-name="Path 795" d="M54.087,35.117A1.058,1.058,0,0,1,54.075,33h.012a1.058,1.058,0,0,1,0,2.116Z" transform="translate(-53.024 -33.001)" fill="#8a734d"/>
    </g>
    <g id="Group_202" data-name="Group 202" transform="translate(46.545 33.851)">
      <path id="Path_796" data-name="Path 796" d="M58.087,39.117A1.058,1.058,0,0,1,58.075,37h.012a1.058,1.058,0,0,1,0,2.116Z" transform="translate(-57.024 -37.001)" fill="#8a734d"/>
    </g>
    <g id="Group_203" data-name="Group 203" transform="translate(21.157)">
      <path id="Path_797" data-name="Path 797" d="M34.087,7.117A1.058,1.058,0,0,1,34.075,5h.012a1.058,1.058,0,0,1,0,2.116Z" transform="translate(-33.024 -5.001)" fill="#8a734d"/>
    </g>
    <g id="Group_204" data-name="Group 204" transform="translate(25.388 4.231)">
      <path id="Path_798" data-name="Path 798" d="M38.087,11.117A1.058,1.058,0,0,1,38.075,9h.012a1.058,1.058,0,1,1,0,2.116Z" transform="translate(-37.024 -9.001)" fill="#8a734d"/>
    </g>
    <g id="Group_205" data-name="Group 205" transform="translate(29.619 8.463)">
      <path id="Path_799" data-name="Path 799" d="M42.087,15.117A1.058,1.058,0,0,1,42.075,13h.012a1.058,1.058,0,1,1,0,2.116Z" transform="translate(-41.024 -13.001)" fill="#8a734d"/>
    </g>
    <g id="Group_206" data-name="Group 206" transform="translate(33.851 12.694)">
      <path id="Path_800" data-name="Path 800" d="M46.087,19.117A1.058,1.058,0,0,1,46.075,17h.012a1.058,1.058,0,0,1,0,2.116Z" transform="translate(-45.024 -17.001)" fill="#8a734d"/>
    </g>
    <g id="Group_207" data-name="Group 207" transform="translate(38.082 16.925)">
      <path id="Path_801" data-name="Path 801" d="M50.087,23.117A1.058,1.058,0,0,1,50.075,21h.012a1.058,1.058,0,0,1,0,2.116Z" transform="translate(-49.024 -21.001)" fill="#8a734d"/>
    </g>
    <g id="Group_208" data-name="Group 208" transform="translate(42.313 21.157)">
      <path id="Path_802" data-name="Path 802" d="M54.087,27.117A1.058,1.058,0,0,1,54.075,25h.012a1.058,1.058,0,0,1,0,2.116Z" transform="translate(-53.024 -25.001)" fill="#8a734d"/>
    </g>
    <g id="Group_209" data-name="Group 209" transform="translate(46.545 25.388)">
      <path id="Path_803" data-name="Path 803" d="M58.087,31.117A1.058,1.058,0,0,1,58.075,29h.012a1.058,1.058,0,0,1,0,2.116Z" transform="translate(-57.024 -29.001)" fill="#8a734d"/>
    </g>
    <g id="Group_210" data-name="Group 210" transform="translate(29.619)">
      <path id="Path_804" data-name="Path 804" d="M42.087,7.117A1.058,1.058,0,0,1,42.075,5h.012a1.058,1.058,0,0,1,0,2.116Z" transform="translate(-41.024 -5.001)" fill="#8a734d"/>
    </g>
    <g id="Group_211" data-name="Group 211" transform="translate(33.851 4.231)">
      <path id="Path_805" data-name="Path 805" d="M46.087,11.117A1.058,1.058,0,0,1,46.075,9h.012a1.058,1.058,0,1,1,0,2.116Z" transform="translate(-45.024 -9.001)" fill="#8a734d"/>
    </g>
    <g id="Group_212" data-name="Group 212" transform="translate(38.082 8.463)">
      <path id="Path_806" data-name="Path 806" d="M50.087,15.117A1.058,1.058,0,0,1,50.075,13h.012a1.058,1.058,0,0,1,0,2.116Z" transform="translate(-49.024 -13.001)" fill="#8a734d"/>
    </g>
    <g id="Group_213" data-name="Group 213" transform="translate(42.313 12.694)">
      <path id="Path_807" data-name="Path 807" d="M54.087,19.117A1.058,1.058,0,0,1,54.075,17h.012a1.058,1.058,0,0,1,0,2.116Z" transform="translate(-53.024 -17.001)" fill="#8a734d"/>
    </g>
    <g id="Group_214" data-name="Group 214" transform="translate(46.545 16.925)">
      <path id="Path_808" data-name="Path 808" d="M58.087,23.117A1.058,1.058,0,0,1,58.075,21h.012a1.058,1.058,0,0,1,0,2.116Z" transform="translate(-57.024 -21.001)" fill="#8a734d"/>
    </g>
    <g id="Group_215" data-name="Group 215" transform="translate(38.082)">
      <path id="Path_809" data-name="Path 809" d="M50.087,7.117A1.058,1.058,0,0,1,50.075,5h.012a1.058,1.058,0,0,1,0,2.116Z" transform="translate(-49.024 -5.001)" fill="#8a734d"/>
    </g>
    <g id="Group_216" data-name="Group 216" transform="translate(42.313 4.231)">
      <path id="Path_810" data-name="Path 810" d="M54.087,11.117A1.058,1.058,0,0,1,54.075,9h.012a1.058,1.058,0,0,1,0,2.116Z" transform="translate(-53.024 -9.001)" fill="#8a734d"/>
    </g>
    <g id="Group_217" data-name="Group 217" transform="translate(46.545 8.463)">
      <path id="Path_811" data-name="Path 811" d="M58.087,15.117A1.058,1.058,0,0,1,58.075,13h.012a1.058,1.058,0,0,1,0,2.116Z" transform="translate(-57.024 -13.001)" fill="#8a734d"/>
    </g>
    <g id="Group_218" data-name="Group 218" transform="translate(46.545)">
      <path id="Path_812" data-name="Path 812" d="M58.087,7.117A1.058,1.058,0,0,1,58.075,5h.012a1.058,1.058,0,0,1,0,2.116Z" transform="translate(-57.024 -5.001)" fill="#8a734d"/>
    </g>
  </g>
</svg>
