<svg xmlns="http://www.w3.org/2000/svg" width="35.475" height="75.678" viewBox="0 0 35.475 75.678">
  <g id="order2" transform="translate(-17.001 -0.003)">
    <g id="Group_238" data-name="Group 238" transform="translate(17.001 0.003)">
      <g id="Group_220" data-name="Group 220" transform="translate(3.547 28.371)">
        <path id="Path_813" data-name="Path 813" d="M47.2,39.369a1.181,1.181,0,0,1-1.183-1.183,11.826,11.826,0,1,0-23.652,0,1.183,1.183,0,0,1-2.365,0,14.191,14.191,0,1,1,28.382,0A1.181,1.181,0,0,1,47.2,39.369Z" transform="translate(-20 -23.994)" fill="#8a734d"/>
      </g>
      <g id="Group_221" data-name="Group 221" transform="translate(24.013 26.595)">
        <path id="Path_814" data-name="Path 814" d="M47.586,39.643A1.181,1.181,0,0,1,46.4,38.46a15.309,15.309,0,0,0-8.448-13.73,1.183,1.183,0,1,1,1.068-2.111,17.665,17.665,0,0,1,9.746,15.842A1.181,1.181,0,0,1,47.586,39.643Z" transform="translate(-37.306 -22.492)" fill="#8a734d"/>
      </g>
      <g id="Group_222" data-name="Group 222" transform="translate(0 24.823)">
        <path id="Path_815" data-name="Path 815" d="M18.184,39.916A1.181,1.181,0,0,1,17,38.734a17.76,17.76,0,0,1,17.737-17.74,1.183,1.183,0,1,1,0,2.365A15.391,15.391,0,0,0,19.366,38.734,1.181,1.181,0,0,1,18.184,39.916Z" transform="translate(-17.001 -20.994)" fill="#8a734d"/>
      </g>
      <g id="Group_223" data-name="Group 223" transform="translate(16.555 11.808)">
        <path id="Path_816" data-name="Path 816" d="M32.183,25.362a1.183,1.183,0,1,1,0-2.365A11.839,11.839,0,0,0,44.008,11.171a1.183,1.183,0,0,1,2.365,0A14.207,14.207,0,0,1,32.183,25.362Z" transform="translate(-31 -9.988)" fill="#8a734d"/>
      </g>
      <g id="Group_224" data-name="Group 224" transform="translate(16.555 11.808)">
        <path id="Path_817" data-name="Path 817" d="M32.183,28.909a1.183,1.183,0,1,1,0-2.365A15.39,15.39,0,0,0,47.555,11.171a1.183,1.183,0,1,1,2.365,0A17.757,17.757,0,0,1,32.183,28.909Z" transform="translate(-31 -9.988)" fill="#8a734d"/>
      </g>
      <g id="Group_225" data-name="Group 225" transform="translate(3.547 11.808)">
        <path id="Path_818" data-name="Path 818" d="M34.191,25.362A14.207,14.207,0,0,1,20,11.171a1.183,1.183,0,0,1,2.365,0A11.839,11.839,0,0,0,34.191,23a1.183,1.183,0,1,1,0,2.365Z" transform="translate(-20 -9.988)" fill="#8a734d"/>
      </g>
      <g id="Group_226" data-name="Group 226" transform="translate(0 11.809)">
        <path id="Path_819" data-name="Path 819" d="M27.284,27.14a1.177,1.177,0,0,1-.532-.127A17.666,17.666,0,0,1,17,11.172a1.183,1.183,0,1,1,2.365,0A15.311,15.311,0,0,0,27.818,24.9a1.182,1.182,0,0,1-.535,2.237Z" transform="translate(-17.001 -9.989)" fill="#8a734d"/>
      </g>
      <g id="Group_227" data-name="Group 227" transform="translate(0 52.036)">
        <path id="Path_820" data-name="Path 820" d="M21.73,46.37H18.184a1.183,1.183,0,1,1,0-2.365H21.73a1.183,1.183,0,1,1,0,2.365Z" transform="translate(-17.001 -44.005)" fill="#8a734d"/>
      </g>
      <g id="Group_228" data-name="Group 228" transform="translate(29.563 52.036)">
        <path id="Path_821" data-name="Path 821" d="M46.729,46.37H43.183a1.183,1.183,0,1,1,0-2.365h3.547a1.183,1.183,0,0,1,0,2.365Z" transform="translate(-42 -44.005)" fill="#8a734d"/>
      </g>
      <g id="Group_229" data-name="Group 229" transform="translate(3.547 41.381)">
        <path id="Path_822" data-name="Path 822" d="M21.183,48.015A1.182,1.182,0,0,1,20,46.833V36.178a1.183,1.183,0,1,1,2.365,0V46.833A1.182,1.182,0,0,1,21.183,48.015Z" transform="translate(-20 -34.995)" fill="#8a734d"/>
      </g>
      <g id="Group_230" data-name="Group 230" transform="translate(0 41.381)">
        <path id="Path_823" data-name="Path 823" d="M18.184,48.015A1.182,1.182,0,0,1,17,46.833V36.178a1.183,1.183,0,1,1,2.365,0V46.833A1.181,1.181,0,0,1,18.184,48.015Z" transform="translate(-17.001 -34.995)" fill="#8a734d"/>
      </g>
      <g id="Group_231" data-name="Group 231" transform="translate(33.11 41.381)">
        <path id="Path_824" data-name="Path 824" d="M46.182,48.015A1.181,1.181,0,0,1,45,46.833V36.178a1.183,1.183,0,1,1,2.365,0V46.833A1.182,1.182,0,0,1,46.182,48.015Z" transform="translate(-44.999 -34.995)" fill="#8a734d"/>
      </g>
      <g id="Group_232" data-name="Group 232" transform="translate(29.563 41.381)">
        <path id="Path_825" data-name="Path 825" d="M43.183,48.015A1.182,1.182,0,0,1,42,46.833V36.178a1.183,1.183,0,1,1,2.365,0V46.833A1.181,1.181,0,0,1,43.183,48.015Z" transform="translate(-42 -34.995)" fill="#8a734d"/>
      </g>
      <g id="Group_233" data-name="Group 233" transform="translate(14.781 24.782)">
        <path id="Path_826" data-name="Path 826" d="M32.456,26.872a2.956,2.956,0,1,1,2.956-2.956A2.96,2.96,0,0,1,32.456,26.872Zm0-3.548a.591.591,0,1,0,.591.591A.592.592,0,0,0,32.456,23.324Z" transform="translate(-29.5 -20.959)" fill="#8a734d"/>
      </g>
      <g id="Group_234" data-name="Group 234">
        <path id="Path_827" data-name="Path 827" d="M18.184,14.177A1.182,1.182,0,0,1,17,12.995V1.186a1.183,1.183,0,1,1,2.365,0V12.995A1.182,1.182,0,0,1,18.184,14.177Z" transform="translate(-17.001 -0.003)" fill="#8a734d"/>
      </g>
      <g id="Group_235" data-name="Group 235" transform="translate(3.547)">
        <path id="Path_828" data-name="Path 828" d="M21.183,14.177A1.182,1.182,0,0,1,20,12.995V1.186a1.183,1.183,0,0,1,2.365,0V12.995A1.182,1.182,0,0,1,21.183,14.177Z" transform="translate(-20 -0.003)" fill="#8a734d"/>
      </g>
      <g id="Group_236" data-name="Group 236" transform="translate(29.563)">
        <path id="Path_829" data-name="Path 829" d="M43.183,14.177A1.182,1.182,0,0,1,42,12.995V1.186a1.183,1.183,0,0,1,2.365,0V12.995A1.182,1.182,0,0,1,43.183,14.177Z" transform="translate(-42 -0.003)" fill="#8a734d"/>
      </g>
      <g id="Group_237" data-name="Group 237" transform="translate(33.11)">
        <path id="Path_830" data-name="Path 830" d="M46.182,14.177A1.182,1.182,0,0,1,45,12.995V1.186a1.183,1.183,0,1,1,2.365,0V12.995A1.182,1.182,0,0,1,46.182,14.177Z" transform="translate(-44.999 -0.003)" fill="#8a734d"/>
      </g>
    </g>
    <g id="Group_239" data-name="Group 239" transform="translate(20.548 41.384)">
      <path id="Path_831" data-name="Path 831" d="M47.2,64.564H21.183A1.181,1.181,0,0,1,20,63.382v-27.2a1.182,1.182,0,0,1,1.183-1.183H47.2a1.182,1.182,0,0,1,1.183,1.183v27.2A1.181,1.181,0,0,1,47.2,64.564ZM22.365,62.2H46.017V37.36H22.365Z" transform="translate(-20 -34.995)" fill="#8a734d"/>
    </g>
    <g id="Group_240" data-name="Group 240" transform="translate(20.548 68.588)">
      <path id="Path_832" data-name="Path 832" d="M47.2,65.092H21.183A1.181,1.181,0,0,1,20,63.91V59.182A1.181,1.181,0,0,1,21.183,58H47.2a1.181,1.181,0,0,1,1.183,1.183V63.91A1.182,1.182,0,0,1,47.2,65.092ZM22.365,62.727H46.017V60.364H22.365Z" transform="translate(-20 -57.999)" fill="#8a734d"/>
    </g>
  </g>
</svg>
