<svg xmlns="http://www.w3.org/2000/svg" width="77.376" height="71.429" viewBox="0 0 77.376 71.429">
  <g id="order1" transform="translate(0 -2.459)">
    <g id="Group_98" data-name="Group 98" transform="translate(0 37.614)">
      <path id="Path_696" data-name="Path 696" d="M74.957,67.811A1.208,1.208,0,0,1,73.748,66.6V58.135h-13.3a1.208,1.208,0,0,1-1.209-1.209V52.09h-13.3a1.208,1.208,0,0,1-1.209-1.209V46.045h-13.3a1.208,1.208,0,0,1-1.209-1.209V40H16.93a1.208,1.208,0,0,1-1.209-1.209V33.955H1.209a1.209,1.209,0,1,1,0-2.418H16.93a1.208,1.208,0,0,1,1.209,1.209v4.836H31.433a1.208,1.208,0,0,1,1.209,1.209v4.836h13.3a1.208,1.208,0,0,1,1.209,1.209v4.836h13.3a1.208,1.208,0,0,1,1.209,1.209v4.836h13.3a1.208,1.208,0,0,1,1.209,1.209V66.6A1.208,1.208,0,0,1,74.957,67.811Z" transform="translate(0 -31.537)" fill="#8a734d"/>
    </g>
    <g id="Group_99" data-name="Group 99" transform="translate(8.473 4.952)">
      <path id="Path_697" data-name="Path 697" d="M8.217,39.6a1.208,1.208,0,0,1-1.209-1.209V5.73a1.209,1.209,0,1,1,2.418,0V38.392A1.208,1.208,0,0,1,8.217,39.6Z" transform="translate(-7.008 -4.521)" fill="#8a734d"/>
    </g>
    <g id="Group_100" data-name="Group 100" transform="translate(22.97 14.635)">
      <path id="Path_698" data-name="Path 698" d="M20.208,43.979A1.208,1.208,0,0,1,19,42.77V13.739a1.209,1.209,0,0,1,2.418,0V42.77A1.208,1.208,0,0,1,20.208,43.979Z" transform="translate(-18.999 -12.53)" fill="#8a734d"/>
    </g>
    <g id="Group_101" data-name="Group 101" transform="translate(37.467 20.686)">
      <path id="Path_699" data-name="Path 699" d="M32.2,48.984a1.208,1.208,0,0,1-1.209-1.209V18.744a1.209,1.209,0,0,1,2.418,0V47.775A1.208,1.208,0,0,1,32.2,48.984Z" transform="translate(-30.99 -17.535)" fill="#8a734d"/>
    </g>
    <g id="Group_102" data-name="Group 102" transform="translate(51.964 26.737)">
      <path id="Path_700" data-name="Path 700" d="M44.19,53.989a1.208,1.208,0,0,1-1.209-1.209V23.749a1.209,1.209,0,1,1,2.418,0V52.78A1.209,1.209,0,0,1,44.19,53.989Z" transform="translate(-42.981 -22.54)" fill="#8a734d"/>
    </g>
    <g id="Group_103" data-name="Group 103" transform="translate(1.21 5.551)">
      <path id="Path_701" data-name="Path 701" d="M73.458,37.174a1.189,1.189,0,0,1-.465-.093L1.745,7.342A1.209,1.209,0,1,1,2.676,5.11L73.923,34.849a1.209,1.209,0,0,1-.465,2.325Z" transform="translate(-1 -5.016)" fill="#8a734d"/>
    </g>
    <g id="Group_104" data-name="Group 104" transform="translate(2.501 2.459)">
      <path id="Path_702" data-name="Path 702" d="M74.525,34.617a1.189,1.189,0,0,1-.465-.093L2.813,4.785a1.209,1.209,0,1,1,.931-2.232L74.991,32.292a1.209,1.209,0,0,1-.467,2.325Z" transform="translate(-2.068 -2.459)" fill="#8a734d"/>
    </g>
    <g id="Group_105" data-name="Group 105" transform="translate(72.457 32.198)">
      <path id="Path_703" data-name="Path 703" d="M61.141,32.568a1.194,1.194,0,0,1-.465-.093,1.209,1.209,0,0,1-.65-1.581l1.29-3.093a1.209,1.209,0,0,1,2.232.931l-1.291,3.093A1.208,1.208,0,0,1,61.141,32.568Z" transform="translate(-59.931 -27.057)" fill="#8a734d"/>
    </g>
    <g id="Group_106" data-name="Group 106" transform="translate(1.208 2.459)">
      <path id="Path_704" data-name="Path 704" d="M2.209,7.971a1.194,1.194,0,0,1-.465-.093A1.209,1.209,0,0,1,1.093,6.3L2.383,3.2a1.209,1.209,0,1,1,2.232.931L3.325,7.226A1.21,1.21,0,0,1,2.209,7.971Z" transform="translate(-0.999 -2.459)" fill="#8a734d"/>
    </g>
    <g id="Group_114" data-name="Group 114" transform="translate(51.947 25.134)">
      <g id="Group_107" data-name="Group 107" transform="translate(14.515 4.04)">
        <path id="Path_705" data-name="Path 705" d="M56.182,59.618a1.208,1.208,0,0,1-1.209-1.209V25.765a1.209,1.209,0,0,1,2.418,0V58.409A1.209,1.209,0,0,1,56.182,59.618Z" transform="translate(-54.973 -24.556)" fill="#8a734d"/>
      </g>
      <g id="Group_108" data-name="Group 108" transform="translate(0 22.17)">
        <path id="Path_706" data-name="Path 706" d="M58.691,56.484a1.208,1.208,0,0,1-1.209-1.209A13.323,13.323,0,0,0,44.176,41.969a1.209,1.209,0,1,1,0-2.418A15.741,15.741,0,0,1,59.9,55.275,1.209,1.209,0,0,1,58.691,56.484Z" transform="translate(-42.967 -39.551)" fill="#8a734d"/>
      </g>
      <g id="Group_109" data-name="Group 109" transform="translate(0.037 7.652)">
        <path id="Path_707" data-name="Path 707" d="M44.207,44.476a1.209,1.209,0,0,1,0-2.418A13.323,13.323,0,0,0,57.513,28.752a1.209,1.209,0,0,1,2.418,0A15.741,15.741,0,0,1,44.207,44.476Z" transform="translate(-42.998 -27.543)" fill="#8a734d"/>
      </g>
      <g id="Group_110" data-name="Group 110" transform="translate(0.037 7.652)">
        <path id="Path_708" data-name="Path 708" d="M44.207,39.619a1.209,1.209,0,0,1,0-2.418,8.458,8.458,0,0,0,8.449-8.449,1.209,1.209,0,1,1,2.418,0A10.879,10.879,0,0,1,44.207,39.619Z" transform="translate(-42.998 -27.543)" fill="#8a734d"/>
      </g>
      <g id="Group_111" data-name="Group 111" transform="translate(0.037 7.652)">
        <path id="Path_709" data-name="Path 709" d="M44.207,34.783a1.209,1.209,0,0,1,0-2.418,3.618,3.618,0,0,0,3.613-3.613,1.209,1.209,0,1,1,2.418,0A6.036,6.036,0,0,1,44.207,34.783Z" transform="translate(-42.998 -27.543)" fill="#8a734d"/>
      </g>
      <g id="Group_112" data-name="Group 112" transform="translate(4.859)">
        <path id="Path_710" data-name="Path 710" d="M48.195,31.284a1.208,1.208,0,0,1-1.209-1.209V22.423a1.209,1.209,0,1,1,2.418,0v7.652A1.208,1.208,0,0,1,48.195,31.284Z" transform="translate(-46.986 -21.214)" fill="#8a734d"/>
      </g>
      <g id="Group_113" data-name="Group 113" transform="translate(9.695 2.019)">
        <path id="Path_711" data-name="Path 711" d="M52.195,30.935a1.208,1.208,0,0,1-1.209-1.209V24.093a1.209,1.209,0,1,1,2.418,0v5.633A1.208,1.208,0,0,1,52.195,30.935Z" transform="translate(-50.986 -22.884)" fill="#8a734d"/>
      </g>
    </g>
    <g id="Group_130" data-name="Group 130" transform="translate(22.964 12.997)">
      <g id="Group_123" data-name="Group 123" transform="translate(14.515 4.059)">
        <path id="Path_719" data-name="Path 719" d="M32.209,49.576A1.208,1.208,0,0,1,31,48.367V15.741a1.209,1.209,0,0,1,2.418,0V48.366A1.209,1.209,0,0,1,32.209,49.576Z" transform="translate(-31 -14.532)" fill="#8a734d"/>
      </g>
      <g id="Group_124" data-name="Group 124" transform="translate(0 22.17)">
        <path id="Path_720" data-name="Path 720" d="M34.718,46.445a1.208,1.208,0,0,1-1.209-1.209A13.323,13.323,0,0,0,20.2,31.93a1.209,1.209,0,1,1,0-2.418A15.741,15.741,0,0,1,35.927,45.236,1.209,1.209,0,0,1,34.718,46.445Z" transform="translate(-18.994 -29.512)" fill="#8a734d"/>
      </g>
      <g id="Group_125" data-name="Group 125" transform="translate(0.037 7.652)">
        <path id="Path_721" data-name="Path 721" d="M20.234,34.437a1.209,1.209,0,1,1,0-2.418A13.323,13.323,0,0,0,33.54,18.713a1.209,1.209,0,0,1,2.418,0A15.741,15.741,0,0,1,20.234,34.437Z" transform="translate(-19.025 -17.504)" fill="#8a734d"/>
      </g>
      <g id="Group_126" data-name="Group 126" transform="translate(0.037 7.652)">
        <path id="Path_722" data-name="Path 722" d="M20.234,29.58a1.209,1.209,0,1,1,0-2.418,8.458,8.458,0,0,0,8.449-8.449,1.209,1.209,0,0,1,2.418,0A10.878,10.878,0,0,1,20.234,29.58Z" transform="translate(-19.025 -17.504)" fill="#8a734d"/>
      </g>
      <g id="Group_127" data-name="Group 127" transform="translate(0.037 7.652)">
        <path id="Path_723" data-name="Path 723" d="M20.234,24.744a1.209,1.209,0,1,1,0-2.418,3.618,3.618,0,0,0,3.613-3.613,1.209,1.209,0,0,1,2.418,0A6.036,6.036,0,0,1,20.234,24.744Z" transform="translate(-19.025 -17.504)" fill="#8a734d"/>
      </g>
      <g id="Group_128" data-name="Group 128" transform="translate(4.86)">
        <path id="Path_724" data-name="Path 724" d="M24.223,21.245a1.208,1.208,0,0,1-1.209-1.209V12.384a1.209,1.209,0,0,1,2.418,0v7.652A1.209,1.209,0,0,1,24.223,21.245Z" transform="translate(-23.014 -11.175)" fill="#8a734d"/>
      </g>
      <g id="Group_129" data-name="Group 129" transform="translate(9.696 2.019)">
        <path id="Path_725" data-name="Path 725" d="M28.223,20.9a1.208,1.208,0,0,1-1.209-1.209V14.054a1.209,1.209,0,0,1,2.418,0v5.633A1.209,1.209,0,0,1,28.223,20.9Z" transform="translate(-27.014 -12.845)" fill="#8a734d"/>
      </g>
    </g>
    <g id="Group_138" data-name="Group 138" transform="translate(8.473 6.927)">
      <g id="Group_131" data-name="Group 131" transform="translate(14.515 4.077)">
        <path id="Path_726" data-name="Path 726" d="M20.223,44.553a1.208,1.208,0,0,1-1.209-1.209V10.736a1.209,1.209,0,0,1,2.418,0V43.344A1.209,1.209,0,0,1,20.223,44.553Z" transform="translate(-19.014 -9.527)" fill="#8a734d"/>
      </g>
      <g id="Group_132" data-name="Group 132" transform="translate(0 22.17)">
        <path id="Path_727" data-name="Path 727" d="M22.732,41.425a1.208,1.208,0,0,1-1.209-1.209A13.323,13.323,0,0,0,8.217,26.91a1.209,1.209,0,0,1,0-2.418A15.741,15.741,0,0,1,23.941,40.216,1.209,1.209,0,0,1,22.732,41.425Z" transform="translate(-7.008 -24.492)" fill="#8a734d"/>
      </g>
      <g id="Group_133" data-name="Group 133" transform="translate(0.037 7.652)">
        <path id="Path_728" data-name="Path 728" d="M8.248,29.417a1.209,1.209,0,1,1,0-2.418A13.323,13.323,0,0,0,21.554,13.693a1.209,1.209,0,0,1,2.418,0A15.741,15.741,0,0,1,8.248,29.417Z" transform="translate(-7.039 -12.484)" fill="#8a734d"/>
      </g>
      <g id="Group_134" data-name="Group 134" transform="translate(0.037 7.653)">
        <path id="Path_729" data-name="Path 729" d="M8.248,24.561a1.209,1.209,0,0,1,0-2.418A8.458,8.458,0,0,0,16.7,13.694a1.209,1.209,0,1,1,2.418,0A10.88,10.88,0,0,1,8.248,24.561Z" transform="translate(-7.039 -12.485)" fill="#8a734d"/>
      </g>
      <g id="Group_135" data-name="Group 135" transform="translate(0.037 7.653)">
        <path id="Path_730" data-name="Path 730" d="M8.248,19.725a1.209,1.209,0,1,1,0-2.418,3.618,3.618,0,0,0,3.613-3.613,1.209,1.209,0,1,1,2.418,0A6.037,6.037,0,0,1,8.248,19.725Z" transform="translate(-7.039 -12.485)" fill="#8a734d"/>
      </g>
      <g id="Group_136" data-name="Group 136" transform="translate(4.859)">
        <path id="Path_731" data-name="Path 731" d="M12.236,16.225a1.208,1.208,0,0,1-1.209-1.209V7.364a1.209,1.209,0,1,1,2.418,0v7.652A1.208,1.208,0,0,1,12.236,16.225Z" transform="translate(-11.027 -6.155)" fill="#8a734d"/>
      </g>
      <g id="Group_137" data-name="Group 137" transform="translate(9.695 2.019)">
        <path id="Path_732" data-name="Path 732" d="M16.236,15.876a1.208,1.208,0,0,1-1.209-1.209V9.034a1.209,1.209,0,1,1,2.418,0v5.633A1.208,1.208,0,0,1,16.236,15.876Z" transform="translate(-15.027 -7.825)" fill="#8a734d"/>
      </g>
    </g>
    <g id="Group_139" data-name="Group 139" transform="translate(0 71.47)">
      <path id="Path_733" data-name="Path 733" d="M76.167,61.958H1.209a1.209,1.209,0,0,1,0-2.418H76.167a1.209,1.209,0,0,1,0,2.418Z" transform="translate(0 -59.54)" fill="#8a734d"/>
    </g>
  </g>
</svg>
