<svg xmlns="http://www.w3.org/2000/svg" width="87.337" height="57.318" viewBox="0 0 87.337 57.318">
  <g id="order4" transform="translate(0 -10.999)">
    <g id="Group_241" data-name="Group 241" transform="translate(16.376 36.935)">
      <path id="Path_835" data-name="Path 835" d="M28.376,32.734H13.365a1.365,1.365,0,1,1,0-2.729H28.376a1.365,1.365,0,0,1,0,2.729Z" transform="translate(-12 -30.005)" fill="#8a734d"/>
    </g>
    <g id="Group_242" data-name="Group 242" transform="translate(0 16.458)">
      <path id="Path_836" data-name="Path 836" d="M24.564,17.728H1.365a1.365,1.365,0,1,1,0-2.729h23.2a1.365,1.365,0,1,1,0,2.729Z" transform="translate(0 -14.999)" fill="#8a734d"/>
    </g>
    <g id="Group_243" data-name="Group 243" transform="translate(23.199 15.093)">
      <path id="Path_837" data-name="Path 837" d="M18.365,38.571A1.364,1.364,0,0,1,17,37.206V15.364a1.365,1.365,0,0,1,2.729,0V37.206A1.364,1.364,0,0,1,18.365,38.571Z" transform="translate(-17 -13.999)" fill="#8a734d"/>
    </g>
    <g id="Group_244" data-name="Group 244" transform="translate(23.199 15.093)">
      <path id="Path_838" data-name="Path 838" d="M23.823,16.728H18.365a1.365,1.365,0,0,1,0-2.729h5.459a1.365,1.365,0,1,1,0,2.729Z" transform="translate(-17 -13.999)" fill="#8a734d"/>
    </g>
    <g id="Group_245" data-name="Group 245" transform="translate(28.657 10.999)">
      <path id="Path_839" data-name="Path 839" d="M22.365,39.665A1.364,1.364,0,0,1,21,38.3V12.364a1.365,1.365,0,0,1,2.729,0V38.3A1.364,1.364,0,0,1,22.365,39.665Z" transform="translate(-21 -10.999)" fill="#8a734d"/>
    </g>
    <g id="Group_246" data-name="Group 246" transform="translate(28.657 10.999)">
      <path id="Path_840" data-name="Path 840" d="M78.315,13.728H22.365a1.365,1.365,0,0,1,0-2.729h55.95a1.365,1.365,0,1,1,0,2.729Z" transform="translate(-21 -10.999)" fill="#8a734d"/>
    </g>
    <g id="Group_247" data-name="Group 247" transform="translate(60.047 45.117)">
      <path id="Path_841" data-name="Path 841" d="M57.648,49.626a1.36,1.36,0,0,1-.906-.344L44.46,38.386a1.365,1.365,0,0,1,1.812-2.042l12.282,10.9a1.365,1.365,0,0,1-.906,2.385Z" transform="translate(-44.002 -36.001)" fill="#8a734d"/>
    </g>
    <g id="Group_248" data-name="Group 248" transform="translate(23.199 47.847)">
      <path id="Path_842" data-name="Path 842" d="M18.365,48.9a1.365,1.365,0,0,1-.887-2.4l9.552-8.166A1.364,1.364,0,0,1,28.8,40.4L19.25,48.567A1.352,1.352,0,0,1,18.365,48.9Z" transform="translate(-17 -38.001)" fill="#8a734d"/>
    </g>
    <g id="Group_249" data-name="Group 249" transform="translate(60.047 26.013)">
      <path id="Path_843" data-name="Path 843" d="M45.367,43.835A1.363,1.363,0,0,1,44,42.471,20.493,20.493,0,0,1,64.472,22a1.365,1.365,0,0,1,0,2.729,17.761,17.761,0,0,0-17.74,17.74A1.363,1.363,0,0,1,45.367,43.835Z" transform="translate(-44.002 -22.001)" fill="#8a734d"/>
    </g>
    <g id="Group_250" data-name="Group 250" transform="translate(79.152 26.013)">
      <path id="Path_844" data-name="Path 844" d="M62.093,24.73H59.367a1.365,1.365,0,0,1,0-2.729h2.727a1.365,1.365,0,0,1,0,2.729Z" transform="translate(-58.002 -22.001)" fill="#8a734d"/>
    </g>
    <g id="Group_251" data-name="Group 251" transform="translate(81.878 11)">
      <path id="Path_845" data-name="Path 845" d="M61.366,28.742a1.364,1.364,0,0,1-1.344-1.609l2.729-15.014a1.364,1.364,0,1,1,2.684.489L62.706,27.621A1.362,1.362,0,0,1,61.366,28.742Z" transform="translate(-60 -11)" fill="#8a734d"/>
    </g>
    <g id="Group_252" data-name="Group 252" transform="translate(31.385 36.935)">
      <path id="Path_846" data-name="Path 846" d="M25.73,43.646a1.365,1.365,0,0,1-.887-2.4c.457-.392.894-.737,1.3-1.059,1.718-1.351,2.31-1.894,2.309-3.358a4.1,4.1,0,0,0-4.091-4.093,1.365,1.365,0,1,1,0-2.729,6.831,6.831,0,0,1,6.82,6.819c0,2.866-1.625,4.147-3.349,5.5-.382.3-.793.624-1.221.989A1.349,1.349,0,0,1,25.73,43.646Z" transform="translate(-22.999 -30.005)" fill="#8a734d"/>
    </g>
    <g id="Group_253" data-name="Group 253" transform="translate(0 20.554)">
      <path id="Path_847" data-name="Path 847" d="M17.74,37.106A17.761,17.761,0,0,1,0,19.366a1.365,1.365,0,1,1,2.729,0A15.029,15.029,0,0,0,17.74,34.377a1.365,1.365,0,1,1,0,2.729Z" transform="translate(0 -18.001)" fill="#8a734d"/>
    </g>
    <g id="Group_254" data-name="Group 254" transform="translate(23.199 56.013)">
      <path id="Path_848" data-name="Path 848" d="M67.494,52.192H18.365A1.363,1.363,0,0,1,17,50.827V45.35a1.363,1.363,0,0,1,1.365-1.365h49.13a1.363,1.363,0,0,1,1.365,1.365v5.478A1.363,1.363,0,0,1,67.494,52.192ZM19.729,49.463h46.4V46.714h-46.4Z" transform="translate(-17 -43.985)" fill="#8a734d"/>
    </g>
    <g id="Group_255" data-name="Group 255" transform="translate(0 16.458)">
      <path id="Path_849" data-name="Path 849" d="M1.365,21.825A1.364,1.364,0,0,1,0,20.46v-4.1a1.365,1.365,0,0,1,2.729,0v4.1A1.364,1.364,0,0,1,1.365,21.825Z" transform="translate(0 -14.999)" fill="#8a734d"/>
    </g>
    <g id="Group_256" data-name="Group 256" transform="translate(28.657 15.093)">
      <path id="Path_850" data-name="Path 850" d="M77.57,16.728H22.365a1.365,1.365,0,0,1,0-2.729H77.57a1.365,1.365,0,0,1,0,2.729Z" transform="translate(-21 -13.999)" fill="#8a734d"/>
    </g>
    <g id="Group_257" data-name="Group 257" transform="translate(23.199 61.491)">
      <path id="Path_851" data-name="Path 851" d="M37.47,54.825h-19.1A1.363,1.363,0,0,1,17,53.46v-4.1A1.363,1.363,0,0,1,18.365,48h19.1a1.363,1.363,0,0,1,1.365,1.365v4.1A1.363,1.363,0,0,1,37.47,54.825ZM19.729,52.1H36.1V50.728H19.729Z" transform="translate(-17 -47.999)" fill="#8a734d"/>
    </g>
    <g id="Group_258" data-name="Group 258" transform="translate(53.221 61.491)">
      <path id="Path_852" data-name="Path 852" d="M59.47,54.825h-19.1A1.363,1.363,0,0,1,39,53.46v-4.1A1.363,1.363,0,0,1,40.365,48h19.1a1.363,1.363,0,0,1,1.365,1.365v4.1A1.363,1.363,0,0,1,59.47,54.825ZM41.729,52.1H58.1V50.728H41.729Z" transform="translate(-39 -47.999)" fill="#8a734d"/>
    </g>
  </g>
</svg>
