<svg xmlns="http://www.w3.org/2000/svg" width="30" height="22" viewBox="0 0 30 22">
  <g id="play" transform="translate(0 -4)">
    <path id="Path_864" data-name="Path 864" d="M14.925,13.217h-1.07V15.4h1.07a1.094,1.094,0,1,0,0-2.184Z" fill="#fff"/>
    <path id="Path_865" data-name="Path 865" d="M17.964,16.8c0,.353.31.578.786.578a.994.994,0,0,0,1.07-.941v-.32l-1,.07c-.561.034-.855.241-.855.612Z" fill="#fff"/>
    <path id="Path_866" data-name="Path 866" d="M28,4H2A2,2,0,0,0,0,6V24a2,2,0,0,0,2,2H28a2,2,0,0,0,2-2V6A2,2,0,0,0,28,4ZM8.671,10.606A1.8,1.8,0,0,1,9.85,10a1.767,1.767,0,0,1-.416,1.278,1.488,1.488,0,0,1-1.187.566,1.671,1.671,0,0,1,.424-1.238Zm2.29,6.4c-.334.487-.68.973-1.225.982s-.708-.317-1.32-.317-.8.308-1.311.327c-.526.02-.927-.527-1.263-1.012-.688-.993-1.212-2.806-.507-4.03a1.954,1.954,0,0,1,1.655-1c.516-.01,1.005.347,1.32.347s.909-.43,1.532-.367a1.868,1.868,0,0,1,1.463.794,1.808,1.808,0,0,0-.865,1.522,1.765,1.765,0,0,0,1.074,1.618,4.428,4.428,0,0,1-.553,1.139Zm4.163-.89h-1.27v1.874H13V12.5h2.15a1.73,1.73,0,0,1,1.813,1.8,1.748,1.748,0,0,1-1.84,1.813Zm5.516,1.865h-.785v-.69h-.018a1.443,1.443,0,0,1-1.3.733,1.245,1.245,0,0,1-1.407-1.217c0-.725.56-1.14,1.58-1.209l1.113-.06v-.32c0-.474-.32-.733-.863-.733a.787.787,0,0,0-.846.587h-.769a1.473,1.473,0,0,1,1.64-1.27c1.01,0,1.658.536,1.658,1.347Zm2.815.19c-.354.993-.743,1.312-1.589,1.312a2.143,2.143,0,0,1-.328-.017v-.673a1.287,1.287,0,0,0,.26.017.711.711,0,0,0,.75-.6l.06-.215-1.5-4.144H22l1.062,3.375h.017l1.062-3.375H25Z" fill="#fff"/>
  </g>
</svg>
