<svg xmlns="http://www.w3.org/2000/svg" width="30" height="22" viewBox="0 0 30 22">
  <g id="paypal" transform="translate(0 -4)">
    <path id="Path_862" data-name="Path 862" d="M28,4H2A2,2,0,0,0,0,6V24a2,2,0,0,0,2,2H28a2,2,0,0,0,2-2V6A2,2,0,0,0,28,4ZM18,18h-.559L17,21.562a.5.5,0,0,1-.5.438H12.573a1,1,0,0,1-.754-.343A.986.986,0,0,1,11.593,21H9.09A1,1,0,0,1,8.1,19.836l1.833-11A1,1,0,0,1,10.923,8H16.5a3.5,3.5,0,0,1,3.166,2.032A3.625,3.625,0,0,1,23,13.625C23,16.16,20.9,18,18,18Z" fill="#fff"/>
    <path id="Path_863" data-name="Path 863" d="M19.316,10h-5.38a1,1,0,0,0-.99.865l-.623,4.568a.5.5,0,0,0,.495.567H15.5A4.505,4.505,0,0,0,20,11.5a3.472,3.472,0,0,0-.212-1.167A.5.5,0,0,0,19.316,10Z" fill="#fff"/>
  </g>
</svg>
