<svg xmlns="http://www.w3.org/2000/svg" width="12.734" height="12.727" viewBox="0 0 12.734 12.727">
  <path id="phone" d="M6.485,4.254a3.94,3.94,0,0,0-2.239-2.88.423.423,0,0,0-.253-.034c-2.3.381-2.642,1.717-2.655,1.773a.43.43,0,0,0,.009.234c2.739,8.5,8.43,10.072,10.3,10.59.144.04.263.072.353.1a.43.43,0,0,0,.313-.018,3.516,3.516,0,0,0,1.74-2.74.433.433,0,0,0-.042-.266,4.116,4.116,0,0,0-2.7-1.879.424.424,0,0,0-.384.091,5.8,5.8,0,0,1-1.842,1.15,8.182,8.182,0,0,1-3.9-3.968A4.653,4.653,0,0,1,6.372,4.586a.433.433,0,0,0,.113-.332Z" transform="translate(-1.326 -1.333)" fill="#fff"/>
</svg>
