<svg xmlns="http://www.w3.org/2000/svg" width="15.541" height="20.083" viewBox="0 0 15.541 20.083">
  <path id="pinterest" d="M0,7.208A6.323,6.323,0,0,1,.532,4.7,7.97,7.97,0,0,1,2.058,2.389,7.292,7.292,0,0,1,4.668.663,9.37,9.37,0,0,1,8.253,0a7.257,7.257,0,0,1,5.241,1.968,6.224,6.224,0,0,1,2.048,4.638A8.975,8.975,0,0,1,13.8,12.279a5.431,5.431,0,0,1-4.488,2.239,3.559,3.559,0,0,1-1.7-.422,2.583,2.583,0,0,1-1.114-1.024l-.8,3.173a6.149,6.149,0,0,1-.261.773c-.106.261-.225.512-.351.753s-.255.468-.382.683-.255.416-.382.6S4.09,19.4,4,19.527s-.181.237-.261.331l-.12.161a.148.148,0,0,1-.161.06.145.145,0,0,1-.12-.12c0-.014-.01-.106-.03-.281s-.04-.357-.06-.552-.04-.446-.06-.753-.026-.606-.02-.894.026-.606.06-.954a7.967,7.967,0,0,1,.151-.964q.22-.943,1.486-6.285A3.378,3.378,0,0,1,4.6,8.5a3.593,3.593,0,0,1-.1-.733l-.02-.3A3.411,3.411,0,0,1,5.13,5.331a1.935,1.935,0,0,1,1.576-.853,1.424,1.424,0,0,1,1.155.492A1.853,1.853,0,0,1,8.273,6.2,4.723,4.723,0,0,1,8.1,7.339q-.172.672-.452,1.546t-.4,1.416A1.734,1.734,0,0,0,7.6,11.867a1.822,1.822,0,0,0,1.476.663,3.016,3.016,0,0,0,2.62-1.8A8.588,8.588,0,0,0,12.73,6.385,4.252,4.252,0,0,0,11.465,3.2,4.847,4.847,0,0,0,7.931,1.968,5.461,5.461,0,0,0,3.825,3.594a5.4,5.4,0,0,0-1.576,3.9,3.448,3.448,0,0,0,.763,2.269.653.653,0,0,1,.161.643,4.154,4.154,0,0,0-.12.462,4.154,4.154,0,0,1-.12.462.36.36,0,0,1-.2.291.455.455,0,0,1-.361-.01A3.359,3.359,0,0,1,.592,9.949,6,6,0,0,1,0,7.208Z" fill="#fff"/>
</svg>
