<svg xmlns="http://www.w3.org/2000/svg" width="18.221" height="17.31" viewBox="0 0 18.221 17.31">
  <g id="star-unfill" transform="translate(-1.822 -1.822)">
    <g id="Path_878" data-name="Path 878" transform="translate(-2.178 -2.178)" fill="#fff">
      <path d="M 18.36322593688965 20.79007339477539 L 13.2396936416626 17.69771766662598 L 13.11051368713379 17.61974906921387 L 12.98133373260498 17.69771766662598 L 7.857800960540771 20.79007339477539 L 9.213283538818359 14.96191787719727 L 9.247444152832031 14.81504821777344 L 9.133463859558105 14.71631813049316 L 4.610747337341309 10.79883575439453 L 10.57194328308105 10.28479862213135 L 10.72186374664307 10.27186870574951 L 10.78061389923096 10.13333797454834 L 13.11051368713379 4.640232086181641 L 15.4404239654541 10.13333797454834 L 15.49917411804199 10.27186870574951 L 15.64909362792969 10.28479862213135 L 21.61027908325195 10.79883575439453 L 17.08756446838379 14.71631813049316 L 16.97358322143555 14.81504821777344 L 17.00774383544922 14.96191787719727 L 18.36322593688965 20.79007339477539 Z" stroke="none"/>
      <path d="M 17.98563957214355 20.27017402648926 L 16.6959228515625 14.72480869293213 L 20.99954605102539 10.99709415435791 L 15.32778358459473 10.50801849365234 L 13.11051464080811 5.280489444732666 L 10.89325332641602 10.50801849365234 L 5.221480846405029 10.99709415435791 L 9.525103569030762 14.72480869293213 L 8.235387802124023 20.27017402648926 L 13.11051368713379 17.3277473449707 L 17.98563957214355 20.27017402648926 M 18.74081420898438 21.30997848510742 L 13.11051368713379 17.91175842285156 L 7.480213642120361 21.30997848510742 L 8.969783782958984 14.90528869628906 L 4.000003814697266 10.60056781768799 L 10.55046367645264 10.03571796417236 L 13.11051368713379 3.999998331069946 L 15.67057323455811 10.03571796417236 L 22.22102355957031 10.60056781768799 L 17.25124359130859 14.90528869628906 L 18.74081420898438 21.30997848510742 Z" stroke="none" fill="#a5a5a5"/>
    </g>
  </g>
</svg>
